<svg width="28" height="28" viewBox="0 0 28 28" fill="none" xmlns="http://www.w3.org/2000/svg">
<path d="M14 10.0908V15.3939M14 20.6969H14.0115M12.036 3.27637L2.30783 22.0227C2.10726 22.4236 2.00113 22.8782 2.00001 23.3412C1.99889 23.8042 2.10281 24.2594 2.30143 24.6617C2.50005 25.0639 2.78646 25.3991 3.13215 25.6339C3.47784 25.8687 3.87077 25.9949 4.27184 26H23.7282C24.1292 25.9949 24.5222 25.8687 24.8679 25.6339C25.2135 25.3991 25.4999 25.0639 25.6986 24.6617C25.8972 24.2594 26.0011 23.8042 26 23.3412C25.9989 22.8782 25.8927 22.4236 25.6922 22.0227L15.964 3.27637C15.7593 2.88674 15.471 2.5646 15.1269 2.34102C14.7829 2.11745 14.3948 2 14 2C13.6052 2 13.2171 2.11745 12.8731 2.34102C12.529 2.5646 12.2407 2.88674 12.036 3.27637Z" stroke="white" stroke-width="4" stroke-linecap="round" stroke-linejoin="round"/>
</svg>
