<svg width="24" height="24" viewBox="0 0 24 24" fill="none" xmlns="http://www.w3.org/2000/svg">
<path d="M8 17.4C7.06667 17.4 6.27778 17.11 5.63333 16.53C4.98889 15.95 4.66667 15.24 4.66667 14.4C4.66667 13.56 4.98889 12.85 5.63333 12.27C6.27778 11.69 7.06667 11.4 8 11.4C8.93333 11.4 9.72222 11.69 10.3667 12.27C11.0111 12.85 11.3333 13.56 11.3333 14.4C11.3333 15.24 11.0111 15.95 10.3667 16.53C9.72222 17.11 8.93333 17.4 8 17.4ZM2.66667 24C1.93333 24 1.30556 23.765 0.783333 23.295C0.261111 22.825 0 22.26 0 21.6V4.8C0 4.14 0.261111 3.575 0.783333 3.105C1.30556 2.635 1.93333 2.4 2.66667 2.4H4V0H6.66667V2.4H17.3333V0H20V2.4H21.3333C22.0667 2.4 22.6944 2.635 23.2167 3.105C23.7389 3.575 24 4.14 24 4.8V21.6C24 22.26 23.7389 22.825 23.2167 23.295C22.6944 23.765 22.0667 24 21.3333 24H2.66667ZM2.66667 21.6H21.3333V9.6H2.66667V21.6Z" fill="white"/>
</svg>
