<svg width="24" height="24" viewBox="0 0 24 24" fill="none" xmlns="http://www.w3.org/2000/svg">
<path d="M20.4 8C19.4 8 18.55 7.61111 17.85 6.83333C17.15 6.05556 16.8 5.11111 16.8 4C16.8 2.88889 17.15 1.94444 17.85 1.16667C18.55 0.388889 19.4 0 20.4 0C21.4 0 22.25 0.388889 22.95 1.16667C23.65 1.94444 24 2.88889 24 4C24 5.11111 23.65 6.05556 22.95 6.83333C22.25 7.61111 21.4 8 20.4 8ZM2.4 24C1.74 24 1.175 23.7389 0.705 23.2167C0.235 22.6944 0 22.0667 0 21.3333V5.33333C0 4.6 0.235 3.97222 0.705 3.45C1.175 2.92778 1.74 2.66667 2.4 2.66667H14.52C14.44 3.11111 14.4 3.55556 14.4 4C14.4 4.44444 14.44 4.88889 14.52 5.33333C14.66 6.04444 14.89 6.70556 15.21 7.31667C15.53 7.92778 15.92 8.46667 16.38 8.93333L12 12L2.4 5.33333V8L12 14.6667L18.33 10.2667C18.67 10.4 19.01 10.5 19.35 10.5667C19.69 10.6333 20.04 10.6667 20.4 10.6667C21.04 10.6667 21.67 10.5556 22.29 10.3333C22.91 10.1111 23.48 9.77778 24 9.33333V21.3333C24 22.0667 23.765 22.6944 23.295 23.2167C22.825 23.7389 22.26 24 21.6 24H2.4Z" fill="white"/>
</svg>
